<svg width="58" height="58" viewBox="0 0 58 58" fill="none" xmlns="http://www.w3.org/2000/svg">
<rect width="58" height="58" rx="5" fill="#5896E2"/>
<path fill-rule="evenodd" clip-rule="evenodd" d="M33.3921 6C33.7191 6 33.9973 6.05729 34.2268 6.17188C34.4161 6.26641 34.9324 6.61875 35.3627 6.9625C35.8016 7.30625 38.8135 9.64375 42.0577 12.1703C45.3019 14.6969 48.0987 16.9055 48.2794 17.0773C48.4601 17.2492 48.6838 17.5242 48.7699 17.6875C48.856 17.8508 48.9506 18.143 48.985 18.332C49.0195 18.5555 48.9936 18.8477 48.9162 19.1484C48.8043 19.5437 48.5376 19.9305 47.3156 21.4945C46.4206 22.6203 45.8613 23.4109 45.8871 23.4883C45.9129 23.557 46.4378 24.382 47.066 25.3188C47.6856 26.2469 48.245 27.1406 48.3138 27.2867C48.3741 27.4414 48.4257 27.7937 48.4257 28.0687C48.4257 28.3523 48.3568 28.6961 48.2622 28.9023C48.1761 29.0914 47.961 29.3836 47.7717 29.5469C47.591 29.7102 44.6565 31.7039 41.2488 33.9727C37.8497 36.2414 34.6743 38.3641 33.3318 39.3008L29.9929 43.5547C28.16 45.8922 26.5077 47.9633 26.327 48.1523C26.1377 48.3586 25.8279 48.5562 25.5784 48.6508C25.3374 48.7281 24.9932 48.7969 24.8039 48.7969C24.6146 48.7883 24.322 48.7453 24.1585 48.6852C23.9864 48.625 23.5561 48.35 23.1861 48.0664C22.8132 47.7799 22.3485 47.4247 21.792 47.0008L19.8558 48.2898C18.7887 49.0031 17.7389 49.6734 17.5065 49.7938C17.2225 49.9398 16.9644 50 16.6288 50C16.3018 50 16.035 49.9398 15.7424 49.7938C15.5187 49.682 15.2347 49.4758 15.1142 49.3383C14.9937 49.2094 12.7133 45.8492 10.0456 41.8789C6.02691 35.9062 5.17498 34.5828 5.07171 34.1875C4.98566 33.8266 4.97705 33.6117 5.0459 33.2852C5.09753 33.0445 5.24382 32.7008 5.38151 32.5117C5.57082 32.2453 7.07677 31.1969 18.6941 23.4281L25.062 15.307C28.5644 10.8383 31.5849 7.01406 31.7743 6.79922C31.9636 6.58438 32.2906 6.31797 32.5057 6.20625C32.7725 6.06875 33.0478 6.00859 33.3921 6V6ZM27.592 14.1641C24.8383 17.6875 22.5407 20.618 22.489 20.6781C22.4374 20.7383 22.4202 20.807 22.4632 20.8242C22.4976 20.85 23.5389 20.1883 24.7867 19.3547C26.4561 18.2375 27.1101 17.8508 27.2994 17.8508C27.4371 17.8508 27.6265 17.9195 27.7039 18.0055C27.7813 18.0914 27.876 18.2547 27.9018 18.375C27.9535 18.5383 27.9104 18.65 27.7211 18.8563C27.5834 19.0109 23.8315 21.5547 19.3825 24.5281C14.9335 27.493 11.2848 29.925 11.2762 29.925C11.2676 29.9336 11.3709 30.2 11.5085 30.5352C11.6462 30.8703 11.8269 31.4031 11.9044 31.7383C12.0019 32.1393 12.0507 32.6693 12.0507 33.3281C12.0421 34.05 11.9991 34.4969 11.8614 35.0039C11.7581 35.382 11.5344 36.0008 11.3536 36.3789C11.1729 36.757 10.8373 37.2984 10.6136 37.582C10.3898 37.8656 10.0456 38.2438 9.84771 38.4156L9.48628 38.7336L12.8854 43.8125C13.7201 43.4172 14.1934 43.2453 14.4774 43.168C14.7614 43.0906 15.3638 43.0047 15.8112 42.9789C16.3104 42.9445 16.8955 42.9703 17.3172 43.0391C17.6958 43.0992 18.3326 43.2625 18.7371 43.4086C19.1415 43.5547 19.7525 43.8641 20.0967 44.0875C20.4323 44.3109 20.9315 44.7148 21.1896 44.9727C21.4478 45.2305 21.7145 45.4281 21.7748 45.4109C21.8264 45.3937 24.3392 43.7266 27.3425 41.7242C30.3458 39.7133 34.9238 36.6539 37.5227 34.9266L42.2298 31.7812C41.8426 30.9477 41.6618 30.4578 41.5758 30.1484C41.4639 29.7445 41.4209 29.2719 41.4209 28.4727C41.4123 27.6477 41.4553 27.1922 41.5758 26.7539C41.6618 26.4273 41.8684 25.8602 42.0319 25.5078C42.1954 25.1555 42.4966 24.6313 42.7031 24.3477C42.9096 24.0641 43.2711 23.6344 43.5034 23.4023L43.9337 22.9727L40.5862 17.9883C39.4933 18.418 38.8737 18.5984 38.5123 18.6758C38.1422 18.7445 37.5485 18.8047 37.1956 18.8047C36.8428 18.8047 36.2663 18.7531 35.9307 18.6844C35.5864 18.6156 35.0099 18.4523 34.6571 18.3234C34.3042 18.1859 33.7191 17.8852 33.3662 17.6531C33.0134 17.4211 32.4971 17.0172 32.2303 16.7508L31.7398 16.2695C30.7674 16.9055 30.3888 17.0859 30.2683 17.0859C30.1478 17.0859 29.9671 17 29.8639 16.8969C29.752 16.7852 29.6659 16.5875 29.6659 16.4414C29.6659 16.2781 29.7348 16.1148 29.8552 16.0031C29.9671 15.9 31.3526 14.9547 32.936 13.9062C34.5194 12.8492 35.9479 11.9383 36.1028 11.8695C36.2491 11.8094 36.5847 11.7578 36.8342 11.7578C37.1268 11.7578 37.428 11.8266 37.712 11.9641C37.9529 12.0758 38.2283 12.2562 38.323 12.368C38.4262 12.4797 39.9666 14.7484 41.7479 17.4039C43.5292 20.068 45.0093 22.2422 45.0524 22.2422C45.0868 22.2336 45.6548 21.5375 46.3174 20.6953C46.98 19.8445 47.5738 19.0281 47.6426 18.8734C47.7373 18.6328 47.7373 18.5469 47.634 18.332C47.5565 18.1516 45.5343 16.5273 40.939 12.9352C37.3161 10.1078 34.1838 7.67578 33.9686 7.53828C33.7535 7.40078 33.4781 7.28906 33.349 7.28906C33.2114 7.28906 33.0048 7.38359 32.8585 7.52109C32.7208 7.65859 30.3544 10.6406 27.592 14.1641ZM32.8069 15.5219C33.4093 16.0805 33.7535 16.3641 33.9686 16.5102C34.1838 16.6562 34.5882 16.8797 34.8722 17.0172C35.1562 17.1461 35.6639 17.318 35.9909 17.3867C36.3265 17.4555 36.8686 17.5156 37.1956 17.5156C37.5313 17.5156 38.0734 17.4555 38.4004 17.3867C38.736 17.3094 39.1835 17.1719 39.4158 17.0602L39.8203 16.8711C37.9529 14.0695 37.3247 13.2188 37.2129 13.1586C37.1096 13.0984 36.9203 13.0555 36.7912 13.0469C36.6363 13.0469 35.9479 13.4508 34.6829 14.2844L32.8069 15.5219ZM43.4776 25.5078C43.3227 25.7656 43.0817 26.2898 42.9527 26.668C42.7375 27.2781 42.7117 27.4758 42.7117 28.4297C42.7117 29.3836 42.7375 29.5812 42.9527 30.1914C43.0817 30.5695 43.2194 30.9133 43.2452 30.9477C43.2797 30.9906 44.1316 30.475 45.1384 29.8133C46.1453 29.1516 47.0058 28.5242 47.0488 28.4297C47.1005 28.3352 47.1349 28.1461 47.1349 28C47.1349 27.8109 46.8079 27.2523 45.9301 25.9375C45.2675 24.9492 44.6909 24.1328 44.6479 24.1328C44.6049 24.1328 44.3898 24.3391 44.166 24.5883C43.9423 24.8375 43.6325 25.25 43.4776 25.5078ZM6.36252 33.4398C6.28794 33.6232 6.27647 33.7865 6.3281 33.9297C6.37113 34.05 6.93908 34.9352 7.59309 35.9062L8.78924 37.668C9.61536 36.7828 9.96818 36.2672 10.1489 35.9062C10.321 35.5539 10.5275 35.0297 10.5964 34.7461C10.6652 34.4625 10.7513 33.9813 10.7771 33.6719C10.8115 33.3195 10.7857 32.8555 10.7082 32.4258C10.6394 32.0477 10.5017 31.5148 10.3985 31.2484C10.3038 30.9734 10.1747 30.75 10.1145 30.7586C10.0542 30.7586 9.21091 31.3 8.2385 31.9617C6.84442 32.907 6.44857 33.225 6.36252 33.4398ZM23.0484 46.1758C22.9881 46.2359 23.1689 46.425 23.6163 46.7773C23.9778 47.0609 24.3564 47.3445 24.4597 47.3961C24.5543 47.4562 24.7264 47.5078 24.8469 47.5078C24.9674 47.5078 25.1567 47.4391 25.2772 47.3617C25.389 47.2758 26.3959 46.0469 27.506 44.6289C28.6161 43.2109 29.5541 42.0078 29.5971 41.9477C29.6401 41.8789 29.6229 41.8359 29.5627 41.8445C29.5024 41.8445 28.0309 42.7984 26.2926 43.9672C24.5629 45.1359 23.1 46.1328 23.0484 46.1758ZM14.4258 44.5602C14.0557 44.6719 13.7287 44.8008 13.7029 44.8438C13.6771 44.8953 14.1934 45.7375 14.856 46.7172C15.6391 47.8859 16.121 48.5305 16.2759 48.6078C16.3964 48.668 16.5857 48.7109 16.6976 48.7109C16.8009 48.7109 17.713 48.1609 18.7199 47.4906C19.7267 46.8117 20.5528 46.2359 20.5528 46.2016C20.5442 46.1672 20.3119 45.918 20.0279 45.6602C19.7267 45.3852 19.219 45.05 18.8059 44.8438C18.4101 44.6547 17.8249 44.4398 17.4893 44.3711C17.1623 44.3023 16.5771 44.2508 16.1985 44.2594C15.8198 44.2594 15.424 44.2852 15.3121 44.3109C15.2003 44.3367 14.8044 44.4484 14.4258 44.5602ZM39.5449 21.6492C39.6482 21.6406 39.8117 21.6836 39.9063 21.7266C40.001 21.7781 40.1215 21.8898 40.1645 21.9844C40.2161 22.0789 40.2334 22.2766 40.2075 22.4141C40.1731 22.6375 39.9494 22.818 38.4865 23.7891C37.2129 24.6398 36.7396 24.9062 36.533 24.9062C36.3695 24.9148 36.1802 24.8461 36.0942 24.7602C35.9909 24.657 35.9565 24.5023 35.9909 23.918L37.6689 22.7836C38.5897 22.1648 39.4331 21.6492 39.5449 21.6492ZM26.9983 22.457C27.6867 22.4742 28.3063 22.5516 28.7193 22.6547C29.0722 22.7492 29.6745 22.9555 30.0532 23.1102C30.4318 23.2734 31.0342 23.5914 31.387 23.8234C31.7398 24.0555 32.282 24.4852 32.5832 24.7687C32.8757 25.0609 33.3146 25.5422 33.5384 25.8516C33.7621 26.1609 34.1063 26.7281 34.3042 27.1234C34.5022 27.5102 34.7603 28.1719 34.8894 28.5844C35.1045 29.2805 35.1217 29.4438 35.1217 30.8359C35.1217 32.125 35.0959 32.443 34.9324 33.0273C34.8292 33.4055 34.5538 34.1016 34.3214 34.5742C34.0977 35.0469 33.676 35.7258 33.3921 36.0781C33.1167 36.4305 32.6692 36.9117 32.4197 37.1437C32.1615 37.3758 31.6538 37.7539 31.301 37.9773C30.9481 38.2094 30.363 38.5273 30.0101 38.6734C29.6573 38.8195 29.2012 38.9656 29.0033 38.9914C28.7193 39.0344 28.6075 39.0086 28.4698 38.8711C28.3493 38.7594 28.2891 38.5961 28.2891 38.3984C28.2891 38.2266 28.3493 38.0375 28.4354 37.9516C28.5214 37.8742 28.8226 37.7281 29.1066 37.625C29.3906 37.5305 29.8725 37.307 30.1823 37.1437C30.492 36.9719 30.9912 36.6367 31.2923 36.3875C31.6021 36.1469 32.0496 35.7 32.2992 35.3906C32.5487 35.0812 32.8843 34.5828 33.0478 34.2734C33.22 33.9641 33.4609 33.3883 33.59 32.9844C33.7707 32.4 33.8309 32.0391 33.8654 31.1367C33.8998 30.1914 33.874 29.8992 33.7191 29.2461C33.6158 28.825 33.3835 28.1633 33.2027 27.7852C33.0134 27.407 32.6778 26.8484 32.4455 26.5391C32.2131 26.2297 31.8259 25.8086 31.5935 25.6023C31.3612 25.3961 30.9223 25.0609 30.6125 24.8633C30.3027 24.657 29.7606 24.3734 29.4078 24.2359C29.0549 24.0898 28.4181 23.9094 27.9879 23.832C27.4285 23.7203 26.981 23.6945 26.3529 23.7375C25.8796 23.7633 25.26 23.8492 24.976 23.918C24.692 23.9953 24.2273 24.15 23.9433 24.2703C23.6594 24.382 23.2205 24.6055 22.9537 24.7602C22.6956 24.9148 22.1362 25.3875 21.6973 25.8086C21.1982 26.307 20.7852 26.8141 20.5356 27.2266C20.3291 27.5789 20.0537 28.1891 19.9246 28.5844C19.7955 28.9711 19.6406 29.6672 19.589 30.1312C19.5202 30.7414 19.5202 31.1625 19.589 31.6953C19.6406 32.0992 19.7611 32.675 19.8644 32.9844C19.959 33.2938 20.1656 33.775 20.3033 34.0586C20.4496 34.3422 20.6819 34.7461 20.8282 34.9609C20.9745 35.1758 21.2757 35.5367 21.4908 35.7687C21.7059 36.0008 22.0932 36.3531 22.3513 36.5508C22.6095 36.757 23.1344 37.075 23.5131 37.2727C23.8917 37.4617 24.5113 37.7023 24.8899 37.8055C25.2686 37.9086 25.6214 38.0203 25.6644 38.0547C25.7161 38.0891 25.7763 38.2094 25.8021 38.3211C25.8365 38.4328 25.8021 38.6562 25.7419 38.8109C25.6644 39 25.5439 39.1031 25.389 39.1375C25.26 39.1719 24.8985 39.1289 24.5887 39.0516C24.279 38.9742 23.8143 38.8195 23.5561 38.7164C23.2979 38.6133 22.7816 38.3555 22.403 38.1406C22.0071 37.9172 21.4048 37.4531 20.9573 37.0234C20.5012 36.5938 19.9763 35.9922 19.6923 35.5625C19.4255 35.1586 19.0813 34.5398 18.935 34.1875C18.7801 33.8352 18.5736 33.1992 18.4703 32.7695C18.3154 32.1594 18.281 31.7641 18.281 30.8359C18.2896 29.8734 18.324 29.5297 18.5133 28.8164C18.6338 28.3438 18.9006 27.6305 19.0899 27.2266C19.2792 26.8227 19.6062 26.2641 19.8128 25.9805C20.0107 25.6969 20.3979 25.2414 20.6647 24.975C20.9315 24.7 21.3875 24.2961 21.6887 24.0812C21.9813 23.8664 22.5148 23.5398 22.8677 23.3594C23.2205 23.1789 23.754 22.9555 24.0552 22.8523C24.3478 22.7578 24.8899 22.6117 25.26 22.543C25.7074 22.457 26.2754 22.4312 26.9983 22.457ZM23.7024 25.7656C23.8143 25.7656 23.995 25.8516 24.0982 25.9633C24.2101 26.0664 24.3392 26.2297 24.3908 26.3242C24.4769 26.4789 24.5113 26.4875 24.735 26.3844C24.8641 26.3156 25.2514 26.2469 25.5784 26.2211C26.0947 26.1781 26.2152 26.2039 26.3959 26.35C26.5594 26.4789 26.611 26.6078 26.611 26.8398C26.611 27.0719 26.5594 27.2008 26.3959 27.3211C26.2496 27.4414 26.0517 27.493 25.7763 27.493C25.5526 27.4844 25.346 27.5273 25.3202 27.5703C25.2944 27.6219 25.587 28.1203 26.654 29.7188L27.5404 29.6672C28.0911 29.6328 28.5558 29.65 28.7882 29.7102C28.9861 29.7617 29.3131 29.9336 29.511 30.0883C29.7176 30.243 30.0015 30.6039 30.1736 30.9219C30.4662 31.4547 30.4834 31.5234 30.4834 32.2969C30.4834 33.0273 30.4576 33.1648 30.2511 33.543C30.122 33.7836 29.9499 34.05 29.8811 34.1445C29.7692 34.2992 29.7778 34.3508 29.9671 34.643C30.0876 34.8148 30.1823 35.0555 30.1823 35.1758C30.1823 35.2961 30.0876 35.4852 29.9757 35.6055C29.8552 35.7258 29.6831 35.8203 29.5885 35.8203C29.4852 35.8203 29.3303 35.7859 29.2357 35.7344C29.141 35.6914 28.9861 35.5109 28.7193 35.0469L28.3751 35.2188C28.1858 35.3133 27.7297 35.4422 27.3683 35.4938C26.7745 35.5883 26.6713 35.5883 26.4647 35.4508C26.3356 35.3734 26.198 35.2016 26.1721 35.0727C26.1463 34.9352 26.1721 34.7203 26.241 34.5914C26.3012 34.4539 26.4303 34.3336 26.525 34.3164C26.6196 34.2992 26.9466 34.2477 27.2564 34.1961C27.5662 34.1445 27.8502 34.0758 27.8932 34.0414C27.9276 33.9984 27.5404 33.3453 26.0947 31.1969L25.4923 31.2398C25.0706 31.2742 24.7436 31.2484 24.3994 31.1453C24.0724 31.0594 23.7798 30.8961 23.5475 30.6898C23.3496 30.5094 23.1086 30.2086 23.014 30.0195C22.8677 29.7531 22.8246 29.5211 22.8246 28.9453C22.8246 28.275 22.8505 28.1805 23.4098 27.1836L23.2291 26.9086C23.1258 26.7539 23.0398 26.5133 23.0312 26.3758C23.0312 26.1953 23.0914 26.075 23.2635 25.9461C23.3926 25.843 23.5905 25.7656 23.7024 25.7656ZM24.0982 29.1172C24.1327 29.3836 24.2273 29.5812 24.3908 29.7445C24.5715 29.9164 24.7178 29.9852 24.9588 29.9766H25.2772C24.4769 28.782 24.2273 28.4297 24.2015 28.4297C24.1757 28.4297 24.1327 28.4984 24.0982 28.5844C24.0724 28.6617 24.0724 28.9023 24.0982 29.1172ZM28.3063 32.1508L29.0119 33.1992C29.184 32.8039 29.2271 32.5203 29.2357 32.3227C29.2357 32.1164 29.184 31.8328 29.1152 31.6781C29.0549 31.5234 28.8742 31.2828 28.7279 31.1367C28.5042 30.9305 28.3579 30.8703 27.9793 30.8445C27.5748 30.8188 27.5232 30.8359 27.5576 30.9562C27.5834 31.0336 27.919 31.5664 28.3063 32.1508ZM16.8525 36.7656C16.8955 36.7656 17.0418 36.8172 17.1709 36.8859C17.3 36.9461 17.4377 37.0664 17.4721 37.1437C17.5065 37.2211 17.5323 37.3672 17.5323 37.4789C17.5323 37.582 17.4807 37.7281 17.4205 37.8055C17.3688 37.8828 16.5857 38.4328 15.6822 39.0258C14.7872 39.6273 13.9697 40.1172 13.875 40.1172C13.7804 40.1258 13.5997 40.0484 13.4706 39.9453C13.2985 39.825 13.2296 39.6961 13.2296 39.4984C13.2296 39.318 13.2985 39.1547 13.4189 39.0344C13.5308 38.9312 14.3311 38.3813 15.1917 37.8055C16.0608 37.2383 16.8095 36.7656 16.8525 36.7656Z" fill="white"/>
</svg>
