<svg width="58" height="58" viewBox="0 0 58 58" fill="none" xmlns="http://www.w3.org/2000/svg">
<rect width="58" height="58" rx="5" fill="#5896E2"/>
<path fill-rule="evenodd" clip-rule="evenodd" d="M9.5857 9C9.81217 9 11.5615 10.7266 29.4214 28.5938C44.8839 44.0625 48.9994 48.2188 48.9994 48.375C49.0072 48.4844 48.937 48.6641 48.6871 49H9.32799L9.17181 48.7812C9.00781 48.5703 9.00781 48.5547 9 9.41406L9.17181 9.20312C9.28895 9.0625 9.41389 9 9.5857 9V9ZM10.187 47.8281H47.008L44.47 45.2891C43.8609 45.8984 43.6969 45.9922 43.5329 45.9922C43.4001 45.9922 43.2283 45.9219 43.1268 45.8125C43.0175 45.7109 42.9472 45.5391 42.9472 45.4062C42.9472 45.2422 43.0409 45.0781 43.2986 44.8203L43.65 44.4688L42.2912 43.1016C41.1979 44.1484 41.0729 44.2344 40.8387 44.2344C40.6278 44.2344 40.5263 44.1797 40.4092 44.0234C40.3154 43.8984 40.253 43.7188 40.253 43.6094C40.2608 43.4766 40.4404 43.2266 40.8387 42.8281L41.4166 42.2422L40.0577 40.8828C39.4798 41.4219 39.2378 41.5781 39.1362 41.5781C39.0425 41.5859 38.8707 41.5156 38.7458 41.4219C38.5896 41.3047 38.5349 41.1953 38.5349 41.0156C38.5349 40.8125 38.613 40.6797 38.8863 40.4062L39.2378 40.0547L37.8399 38.6484C36.8403 39.6328 36.5592 39.8516 36.442 39.8594C36.3483 39.8594 36.1843 39.7812 36.0828 39.6875C35.9734 39.5859 35.8797 39.4531 35.8719 39.3906C35.8641 39.3281 35.8641 39.2109 35.8719 39.1406C35.8719 39.0625 36.1374 38.7344 36.442 38.4141L37.0121 37.8203L35.6533 36.4609C35.0207 37.0547 34.8801 37.125 34.6693 37.125C34.4584 37.125 34.3569 37.0703 34.2398 36.9141C34.1461 36.7891 34.0758 36.6328 34.0836 36.5625C34.0836 36.4844 34.2476 36.2422 34.4506 36.0312L34.8255 35.6328L33.4198 34.2344C32.3733 35.2812 32.2015 35.4062 32.0141 35.4062C31.8736 35.4062 31.7096 35.3437 31.608 35.2344C31.4987 35.125 31.4362 34.9609 31.4362 34.8203C31.4362 34.6328 31.5534 34.4609 32.0141 34L32.592 33.4141L31.2332 32.0547C30.7178 32.5312 30.4757 32.6953 30.3507 32.7188C30.2024 32.75 30.0774 32.7187 29.9446 32.6172C29.8197 32.5156 29.7416 32.3672 29.726 32.1953C29.7026 31.9766 29.7572 31.8672 30.0384 31.5547L30.3742 31.1719L29.0075 29.8203C28.1173 30.7109 27.7815 30.9609 27.6565 30.9844C27.4925 31.0234 27.3988 30.9844 27.2114 30.7969C27.024 30.6094 26.9849 30.5156 27.024 30.3438C27.0474 30.2266 27.2973 29.8906 27.6253 29.5625L28.1875 29L26.8365 27.6328C26.1727 28.2188 26.0165 28.3047 25.8213 28.2969C25.6417 28.2969 25.5246 28.2344 25.4152 28.0781C25.3215 27.9609 25.2512 27.7891 25.259 27.6875C25.259 27.5938 25.4152 27.3516 25.6105 27.1406L25.9541 26.7734L24.5952 25.4141C23.5488 26.4453 23.3692 26.5703 23.1896 26.5781C23.0412 26.5781 22.8928 26.5156 22.7835 26.4062C22.682 26.3047 22.6039 26.125 22.6039 25.9922C22.6039 25.8047 22.721 25.6406 23.1896 25.1719L23.7753 24.5859L22.3774 23.1797C21.7683 23.7578 21.5262 23.9219 21.4481 23.9219C21.3778 23.9297 21.2216 23.8594 21.0967 23.7656C20.9405 23.6484 20.8858 23.5469 20.8858 23.3359C20.8858 23.125 20.9561 22.9844 21.2138 22.7031L21.5496 22.3516L20.1908 20.9922C19.2771 21.8672 18.9491 22.1328 18.871 22.1328C18.8007 22.1406 18.6836 22.1406 18.6211 22.1328C18.5586 22.125 18.4259 22.0312 18.3243 21.9219C18.2306 21.8203 18.1525 21.6562 18.1525 21.5547C18.1604 21.4453 18.379 21.1641 18.7617 20.7734L19.363 20.1641L17.9573 18.7656C17.3326 19.3906 17.1998 19.4688 16.9968 19.4688C16.8171 19.4688 16.7078 19.4141 16.5907 19.25C16.497 19.1328 16.4267 18.9609 16.4345 18.8594C16.4345 18.7656 16.5907 18.5234 16.7859 18.3125L17.1295 17.9453L15.7707 16.5859C14.7867 17.5625 14.5368 17.7422 14.4041 17.75C14.2947 17.75 14.1151 17.6875 13.9902 17.5938C13.834 17.4766 13.7793 17.375 13.7793 17.1641C13.7793 16.9297 13.8652 16.8047 14.3416 16.2969L14.9117 15.7109L13.545 14.3516C12.9359 14.9609 12.7719 15.0547 12.6079 15.0547C12.4752 15.0547 12.3033 14.9844 12.2018 14.875C12.0925 14.7734 12.0222 14.6016 12.0222 14.4688C12.0222 14.3047 12.1159 14.1406 12.3736 13.8828L12.7251 13.5312L10.187 10.9922V47.8281ZM32.6779 9C32.9356 9 33.1777 9.22656 36.2468 12.3047C38.6755 14.7344 39.5579 15.6641 39.5892 15.8359C39.6282 16.0078 39.6048 16.125 39.4955 16.2656C39.3861 16.4062 39.2534 16.4688 39.0347 16.4844C38.738 16.5 38.6989 16.4766 36.5045 14.2734L34.0055 16.7734L43.9234 26.6953L46.4223 24.1953L43.4157 21.1875C40.8074 18.5781 40.4092 18.1484 40.4092 17.9453C40.4092 17.8203 40.456 17.6406 40.5107 17.5547C40.5732 17.4688 40.7137 17.375 40.823 17.3438C40.9714 17.2969 41.1042 17.3281 41.2838 17.4297C41.4244 17.5156 42.955 19 44.6809 20.7344C46.4145 22.4688 47.828 23.9219 47.828 23.9609C47.828 24.0078 47.9608 24.8828 48.4137 27.7969L48.7105 28.1406C48.8823 28.3516 48.9994 28.5703 48.9994 28.6875C48.9994 28.7969 48.9213 28.9609 48.8198 29.0625C48.7105 29.1719 48.5543 29.2344 48.3903 29.2344C48.2185 29.2344 48.0545 29.1562 47.8436 28.9688C47.5547 28.6953 47.5469 28.6953 43.7281 28.1172L36.2468 20.6484C29.0153 13.4219 28.7732 13.1719 28.7889 12.9062C28.8045 12.6641 29.0075 12.4297 30.6084 10.8203C32.2718 9.13281 32.428 9 32.6779 9ZM30.1789 12.9453L31.5065 14.2734L34.0055 11.7734C33.0059 10.7734 32.7013 10.4844 32.6779 10.4844C32.6545 10.4844 32.0844 11.0391 31.405 11.7109L30.1789 12.9453ZM20.8468 11.1172C20.8936 11.1172 21.0186 11.1719 21.1201 11.2422C21.2294 11.3125 21.8542 11.8984 22.5023 12.5469C23.6347 13.6719 23.6972 13.7266 23.8299 13.5938C23.908 13.5234 24.0876 13.4609 24.2282 13.4609C24.4234 13.4609 24.5796 13.5469 25.3371 14.2344L25.6339 14.0078C25.7979 13.8828 26.0244 13.7422 26.1415 13.6953C26.2586 13.6484 26.5554 13.6172 26.8053 13.6172C27.0864 13.6172 27.3676 13.6719 27.5628 13.7656C27.7658 13.8672 29.07 15.1172 31.1395 17.1875C34.0914 20.1406 34.396 20.4766 34.396 20.7031C34.396 20.9141 34.3023 21.0625 33.2402 22.1641L35.1457 24.0781C36.8481 25.7891 37.0511 26.0234 37.0511 26.25C37.0511 26.3984 36.9887 26.5703 36.895 26.6562C36.8091 26.75 36.6372 26.8125 36.4889 26.8125C36.278 26.8125 36.1453 26.7266 35.255 25.8359L32.717 28.3828L42.9081 38.5703L44.3763 38.7891C45.1807 38.9141 45.8523 39 45.8601 38.9844C45.8679 38.9766 45.7742 38.2969 45.4227 35.9922L41.6274 32.2031C39.2065 29.7891 37.8321 28.3594 37.8321 28.2578C37.8321 28.1719 37.9024 28.0078 37.9883 27.8906C38.1132 27.7188 38.2147 27.6797 38.4412 27.6797C38.7223 27.6797 38.8707 27.8125 46.5551 35.5234L47.1408 39.4297L47.4454 39.7656C47.6328 39.9687 47.7499 40.1719 47.7499 40.2891C47.7499 40.3984 47.664 40.5781 47.5625 40.6797C47.4532 40.7891 47.2814 40.875 47.172 40.875C47.0471 40.875 46.844 40.7578 46.3052 40.2734L44.3919 39.9844C43.3455 39.8203 42.4318 39.6641 42.3615 39.625C42.299 39.5859 37.3088 34.6172 31.2722 28.5781C21.7526 19.0469 20.3001 17.5703 20.3001 17.375C20.3001 17.25 20.3704 17.0703 20.6125 16.8125L19.3083 15.5078C18.1994 14.3984 18.0042 14.1641 18.0042 13.9609C18.0042 13.7656 18.1994 13.5312 19.2224 12.4844C19.894 11.8047 20.5188 11.2188 20.6047 11.1797C20.6984 11.1484 20.8077 11.1172 20.8468 11.1172ZM45.329 27.1641C45.4384 27.1875 45.8757 27.2578 46.3052 27.3203C46.7347 27.3828 47.1096 27.4375 47.1252 27.4375C47.1486 27.4375 47.1096 27.0234 47.0315 26.5234C46.9612 26.0156 46.8987 25.5781 46.8987 25.5469C46.8909 25.5156 46.8675 25.4844 46.8362 25.4844C46.805 25.4844 46.4067 25.8594 45.9538 26.3047C45.1885 27.0703 45.1494 27.125 45.329 27.1641ZM32.3265 15.0938L33.1465 15.9219L35.6533 13.4219L34.8255 12.6016L32.3265 15.0938ZM19.4567 13.9609C19.4723 14 19.9175 14.4766 20.4563 15.0156L21.4325 15.9922L22.8381 14.5859C21.2919 13.0391 20.8233 12.5938 20.8077 12.5938C20.7843 12.5938 20.4641 12.8828 20.1049 13.2344C19.7378 13.5938 19.4489 13.9219 19.4567 13.9609ZM26.1962 15.1328L32.3655 21.3047L32.9903 20.6797C27.266 14.9531 27.0786 14.7812 26.8131 14.7812C26.6257 14.7812 26.4773 14.8359 26.368 14.9531L26.1962 15.1328ZM21.698 17.3594L29.6635 25.3281C31.569 23.4219 32.1234 22.8359 32.1234 22.7891C32.1234 22.75 30.3585 20.9453 28.2032 18.7891C26.04 16.625 24.2594 14.8594 24.236 14.8594C24.2126 14.8594 23.6347 15.4219 22.9475 16.1094L21.698 17.3594ZM30.4835 26.1484L31.8892 27.5547L34.4272 25.0156L33.0215 23.6094L30.4835 26.1484ZM15.5598 24.625C15.7238 24.625 16.8406 25.7031 21.409 30.2734C24.5172 33.375 27.0942 35.9922 27.1333 36.0938C27.1801 36.2031 27.1723 36.3516 27.1255 36.4844C27.0864 36.6016 26.9615 36.7422 26.8521 36.7969C26.7428 36.8438 26.5944 36.8906 26.5242 36.8906C26.4461 36.8906 24.1189 34.625 16.1143 26.6172V41.8906H31.3816L29.6869 40.1953C28.1719 38.6797 27.9845 38.4688 27.9845 38.2422C27.9845 38.0859 28.047 37.9219 28.1407 37.8281C28.2344 37.7344 28.3984 37.6719 28.5546 37.6719C28.7811 37.6719 29.0309 37.9062 31.0848 39.9609C32.8419 41.7109 33.3729 42.2891 33.3729 42.4375C33.3808 42.5469 33.3105 42.7266 33.0606 43.0625H15.2943L14.9429 42.7109L14.9273 24.9531L15.1459 24.7891C15.2631 24.6953 15.4505 24.625 15.5598 24.625Z" fill="white"/>
</svg>
