<svg width="58" height="58" viewBox="0 0 58 58" fill="none" xmlns="http://www.w3.org/2000/svg">
<rect width="58" height="58" rx="5" fill="#5896E2"/>
<path fill-rule="evenodd" clip-rule="evenodd" d="M44.5712 6.00082C45.0867 5.99301 45.3991 6.03988 45.8522 6.18832C46.188 6.28988 46.6723 6.51644 46.9301 6.68049C47.1879 6.85237 47.5862 7.19611 47.8205 7.4461C48.0861 7.72735 48.3595 8.14921 48.5392 8.53202C48.6954 8.87576 48.8672 9.36794 48.9141 9.62575C48.9766 9.95386 49 14.9147 49 42.2813L48.8047 42.8673C48.6954 43.1876 48.5079 43.625 48.3907 43.836C48.2736 44.0469 47.9611 44.4297 47.7034 44.6953C47.4378 44.9531 47.0551 45.2656 46.8442 45.3828C46.6333 45.5 46.1959 45.6875 45.2898 45.9922H20.6852L20.5056 45.8125C20.3962 45.7031 20.3337 45.5469 20.3337 45.3828C20.3337 45.2031 20.3884 45.086 20.5446 44.9766C20.7633 44.8125 20.818 44.8125 32.8703 44.8203C43.6651 44.8203 45.032 44.8047 45.446 44.6953C45.7038 44.6328 46.0553 44.4922 46.2271 44.3907C46.3989 44.2891 46.7192 44.0235 46.9379 43.7891C47.1488 43.5625 47.4144 43.1954 47.5159 42.9844C47.6175 42.7657 47.7346 42.3673 47.7815 42.086C47.8362 41.7345 47.8362 41.4376 47.7737 41.1095C47.7346 40.8517 47.6018 40.4454 47.4847 40.2111C47.3753 39.9767 47.0941 39.6017 46.8676 39.3751C46.6489 39.1564 46.2818 38.883 46.0709 38.7736C45.8522 38.672 45.5241 38.547 45.3288 38.5002C45.1336 38.4533 44.8289 38.4142 44.6415 38.4142C44.4618 38.4142 44.0713 38.4689 43.7667 38.5314C43.3527 38.6173 43.1261 38.633 42.845 38.5705C42.6419 38.5314 42.3294 38.3908 42.142 38.258C41.9623 38.133 41.7202 37.8595 41.3843 37.2814L41.3452 12.0866L37.5022 12.0476L37.3148 11.8288C37.2132 11.7116 37.1273 11.5554 37.1273 11.4773C37.1195 11.407 37.1898 11.2507 37.4398 10.9148H41.3452V9.52419C41.3452 8.53202 41.3765 8.03203 41.4624 7.75078C41.5249 7.53204 41.6733 7.23517 41.7983 7.08674C41.9233 6.9383 42.2123 6.71174 42.4466 6.58675C42.6809 6.45394 43.0949 6.27425 43.3761 6.1805C43.7432 6.04769 44.0713 6.00082 44.5634 6.00082H44.5712ZM43.1652 7.51641C43.048 7.57891 42.8996 7.67266 42.8293 7.72735C42.759 7.78203 42.6653 7.90703 42.6184 8.00859C42.5481 8.13359 42.5247 11.7663 42.5247 22.5161C42.5247 35.1018 42.5403 36.883 42.6419 37.0861C42.7044 37.2189 42.8528 37.3517 42.9699 37.3908C43.1105 37.4299 43.3761 37.4142 43.7354 37.3439C44.0947 37.2658 44.5009 37.2424 44.9071 37.2736C45.2507 37.2971 45.7272 37.383 45.9615 37.4611C46.1959 37.547 46.5317 37.6799 46.7036 37.7658C46.8754 37.8595 47.1879 38.0705 47.4066 38.2502L47.7971 38.5705C47.8362 11.7429 47.8205 10.0398 47.719 9.62575C47.6487 9.36794 47.4847 8.96951 47.3441 8.73514C47.2035 8.50858 46.9379 8.18046 46.7426 8.00078C46.5474 7.82891 46.1646 7.58673 45.8834 7.45392C45.4929 7.27423 45.2351 7.21173 44.7899 7.1883C44.4228 7.17267 44.0478 7.21173 43.7901 7.28204C43.5714 7.34454 43.2902 7.45392 43.1652 7.51641ZM35.2605 10.9148L35.4167 11.0945C35.5026 11.1882 35.5807 11.3523 35.5807 11.4616C35.5807 11.571 35.5104 11.7429 35.2761 12.0476L22.8254 12.071C13.2101 12.0866 10.3591 12.1179 10.281 12.1882C10.2029 12.2585 10.1795 13.071 10.1873 19.899L9.99199 20.0943C9.89045 20.2037 9.72642 20.2896 9.62488 20.2896C9.52334 20.2974 9.35149 20.2271 9.01562 19.9771V12.0085L9.20309 11.7195C9.30463 11.5554 9.46866 11.3445 9.5702 11.2507C9.67174 11.157 9.84359 11.0476 9.95294 11.0007C10.0779 10.9538 14.5536 10.9226 35.2605 10.9148ZM9.61707 21.8521C9.7108 21.8521 9.88264 21.938 10.1873 22.2427V33.4143C10.1873 43.2422 10.2029 44.6016 10.3044 44.7032C10.406 44.8047 10.9606 44.8203 14.3896 44.8203C18.2013 44.8125 18.3575 44.8203 18.545 44.9688C18.6934 45.0781 18.7403 45.1953 18.7403 45.4063C18.7403 45.6172 18.6934 45.7344 18.545 45.8438C18.3575 45.9922 18.2013 46 10.1482 46L9.75766 45.7422C9.4999 45.5703 9.31244 45.3672 9.01562 44.7813L9 22.1724L9.21871 22.0161C9.33587 21.9224 9.51552 21.8521 9.61707 21.8521ZM20.8492 13.4147C21.9897 13.4147 22.1302 13.4304 22.4505 13.5866C22.6848 13.7116 22.8567 13.8678 22.9738 14.0788C23.0832 14.2897 23.2004 14.7897 23.505 16.7897L23.9736 17.024C24.2314 17.1568 24.6376 17.3912 25.3015 17.8443L26.4732 17.3912C27.1918 17.11 27.762 16.9381 27.9572 16.9303C28.1369 16.9303 28.3947 17.0084 28.5743 17.11C28.8008 17.235 28.9883 17.4693 29.3007 17.985C29.5351 18.3678 29.8241 18.8912 29.9568 19.1334C30.1131 19.4459 30.1834 19.7037 30.1834 19.9537C30.1834 20.188 30.1287 20.4224 30.0271 20.5786C29.9412 20.7193 29.4413 21.1802 27.9572 22.3755V24.4926L28.9336 25.2739C29.5897 25.7973 29.9568 26.141 30.0506 26.3363C30.1209 26.4926 30.1834 26.7816 30.1834 26.9848C30.1834 27.2973 30.0974 27.5004 29.6678 28.2582C29.3788 28.7504 29.0664 29.2738 28.9649 29.4066C28.8633 29.5472 28.6602 29.7191 28.5274 29.7894C28.3868 29.8597 28.1291 29.9222 27.9572 29.9222C27.762 29.9222 27.223 29.7581 26.4966 29.4847C25.8561 29.2347 25.3249 29.0394 25.3015 29.0394C25.2781 29.0394 25.075 29.1644 24.8563 29.3207C24.6298 29.4769 24.2236 29.7113 23.958 29.8285C23.5675 30.0081 23.4659 30.0941 23.4659 30.2269C23.4659 30.3284 23.38 30.9144 23.2707 31.5394C23.1457 32.2893 23.0285 32.7346 22.9348 32.8675C22.8567 32.9768 22.6692 33.1409 22.5208 33.2425C22.2708 33.4065 22.1771 33.4221 20.8883 33.4221C19.5995 33.4221 19.5058 33.4065 19.248 33.2425C19.0996 33.1409 18.9121 32.9534 18.8184 32.8284C18.7012 32.6643 18.6075 32.2659 18.4825 31.4612C18.381 30.8362 18.2872 30.2659 18.2638 30.1878C18.2482 30.1175 18.0139 29.9456 17.7483 29.8128C17.4749 29.68 17.0922 29.4457 16.8891 29.305C16.6782 29.1566 16.4907 29.0394 16.4595 29.0394C16.4204 29.0394 15.8893 29.2347 15.2644 29.4769C14.577 29.7425 14.0068 29.9144 13.8194 29.9144C13.6475 29.9144 13.4054 29.8597 13.2726 29.7972C13.1476 29.7347 12.9602 29.5941 12.8742 29.4925C12.7805 29.3988 12.4681 28.9066 12.1869 28.4144C11.8979 27.9222 11.6323 27.3832 11.5932 27.2191C11.5464 27.0395 11.5386 26.8207 11.5854 26.6332C11.6323 26.477 11.726 26.266 11.8041 26.1723C11.8822 26.0707 12.3587 25.6489 13.7959 24.4692V22.3599L12.9836 21.7114C12.5384 21.3521 12.0775 20.9615 11.9447 20.8365C11.8198 20.7115 11.6635 20.4615 11.6089 20.274C11.5464 20.0865 11.5308 19.8365 11.5542 19.7037C11.5854 19.5709 11.8744 19.0006 12.2025 18.4224C12.5852 17.7584 12.8977 17.3053 13.0695 17.1725C13.2648 17.024 13.4523 16.9615 13.7335 16.9459C14.0615 16.9303 14.3349 17.0084 16.4751 17.8443L16.8735 17.5631C17.0922 17.4068 17.4905 17.1725 17.7561 17.0475C18.0685 16.899 18.256 16.7584 18.2716 16.6569C18.2951 16.5709 18.381 16.0084 18.4747 15.4069C18.5684 14.8053 18.6856 14.2272 18.7403 14.1178C18.795 14.0085 18.9043 13.86 18.9824 13.7897C19.0683 13.7194 19.2402 13.6022 19.3652 13.5397C19.5526 13.4382 19.8729 13.4147 20.8492 13.4147ZM19.5214 16.2272C19.3808 17.1256 19.2792 17.5553 19.1855 17.6568C19.1152 17.735 19.0293 17.7975 18.998 17.7896C18.959 17.7896 18.6778 17.9068 18.3732 18.0553C18.0607 18.1959 17.5608 18.5006 17.2562 18.7193C16.9594 18.9381 16.6626 19.1256 16.6157 19.1177C16.561 19.1177 15.9283 18.8912 15.2097 18.6099C14.4833 18.3287 13.8662 18.1021 13.8194 18.1021C13.7803 18.1021 13.6163 18.3209 13.4601 18.5865C13.3038 18.8599 13.0695 19.2818 12.9289 19.524L12.6868 19.9771C14.4442 21.3989 14.9598 21.8286 14.9676 21.8521C14.9676 21.8755 14.9754 22.5864 14.9832 23.438L14.991 24.9848C14.6317 25.3207 14.1396 25.727 13.6632 26.1098C13.1945 26.4926 12.7727 26.8207 12.7415 26.8441C12.7024 26.8676 12.9133 27.3051 13.2101 27.8129C13.5226 28.3597 13.7881 28.7347 13.8584 28.7269C13.9209 28.7269 14.5224 28.516 15.1863 28.2582C15.8502 28.0004 16.4829 27.7894 16.5923 27.7894C16.7016 27.7894 16.9828 27.9301 17.2171 28.1019C17.4515 28.2816 17.8264 28.5238 18.0373 28.641C18.256 28.766 18.5997 28.93 18.8106 29.0082C19.0996 29.1175 19.2168 29.2191 19.2871 29.391C19.3417 29.516 19.4589 30.1488 19.5526 30.7972C19.6464 31.4378 19.7401 32.0315 19.7635 32.1018C19.7948 32.2268 19.9119 32.2425 20.8883 32.2425H21.9818C22.0365 31.9065 22.1302 31.305 22.224 30.68C22.3177 30.055 22.4271 29.4691 22.4583 29.3675C22.5052 29.2503 22.7786 29.0785 23.3331 28.8207C23.7706 28.6097 24.3173 28.2972 24.5438 28.1176C24.7938 27.9066 25.0281 27.7894 25.1687 27.7894C25.2859 27.7894 25.9264 28.0004 26.5903 28.2582C27.2542 28.516 27.8557 28.7269 27.9182 28.7269C27.9885 28.7269 28.2384 28.3675 28.5274 27.8676C28.793 27.3988 28.9961 26.9535 28.9727 26.891C28.9492 26.8285 28.4649 26.3988 27.9026 25.9457C27.3167 25.4848 26.8246 25.0317 26.7778 24.9145C26.7231 24.7817 26.7153 24.5708 26.7543 24.352C26.7856 24.1567 26.8168 23.7505 26.8168 23.4536C26.8168 23.1489 26.7856 22.727 26.7543 22.5161C26.7153 22.2974 26.7153 22.0474 26.7543 21.9458C26.7934 21.8521 27.3167 21.3755 27.9182 20.8911C28.5196 20.4146 29.0117 19.9693 29.0117 19.9146C29.0117 19.8677 28.793 19.4459 28.5274 18.9927C28.2541 18.5318 28.0119 18.149 27.9807 18.1334C27.9416 18.1178 27.3089 18.3365 26.5747 18.6177C25.8248 18.899 25.1531 19.1099 25.0672 19.0865C24.9813 19.0709 24.7391 18.9146 24.5204 18.7427C24.3095 18.5787 23.9736 18.3521 23.7784 18.2428C23.5831 18.1334 23.255 17.9771 23.0441 17.899C22.841 17.8131 22.6145 17.6959 22.5599 17.6334C22.4974 17.5709 22.349 16.899 22.2162 16.11C22.0912 15.3366 21.9818 14.6803 21.9818 14.6413C21.9818 14.61 21.4897 14.5866 20.8883 14.5866C19.8182 14.5866 19.7948 14.5866 19.7635 14.7585C19.7401 14.86 19.6307 15.5163 19.5214 16.2272ZM38.8145 13.4147L39.166 13.5944C39.3613 13.696 39.619 13.9225 39.9861 14.446L40.0096 16.4069C40.033 18.3756 40.033 18.3756 39.8299 18.7818C39.6815 19.1021 39.5487 19.2427 39.2675 19.4068C38.9082 19.6177 38.8457 19.6255 36.354 19.6646V20.7583C36.354 21.3599 36.3697 21.8521 36.3931 21.8521C36.4165 21.8521 36.5962 21.7114 36.8071 21.5396C37.0336 21.3443 37.2523 21.2271 37.3695 21.2271C37.4788 21.2271 37.6194 21.2739 37.6975 21.3286C37.7678 21.3833 37.8616 21.5083 37.9006 21.6177C37.9553 21.7583 37.9475 21.8833 37.8772 22.0474C37.8225 22.1724 37.3929 22.6567 36.932 23.1177C36.1822 23.8598 36.0494 23.9536 35.8073 23.9614C35.5573 23.9614 35.4401 23.8676 34.5809 23.0005C33.8233 22.2505 33.6202 22.0005 33.6202 21.8286C33.6202 21.7114 33.6983 21.5318 33.8155 21.4224C33.917 21.313 34.0967 21.2271 34.206 21.2271C34.331 21.2271 34.5341 21.3521 35.1902 21.9692L35.1824 19.6646H34.1123C33.5187 19.6646 32.8938 19.6255 32.7219 19.5787C32.5501 19.5318 32.2923 19.399 32.1439 19.2896C31.9955 19.1724 31.808 18.9381 31.7299 18.7662C31.6128 18.4928 31.5893 18.2037 31.5893 16.5162C31.5893 14.7741 31.605 14.5553 31.7377 14.2897C31.8159 14.1335 31.9721 13.9225 32.0736 13.8288C32.1674 13.735 32.3782 13.6022 32.5267 13.5397C32.7532 13.4382 33.2999 13.4225 38.8145 13.4147ZM32.7454 16.5162C32.761 17.9459 32.7844 18.2818 32.8782 18.3756C32.9797 18.4771 33.4093 18.4928 35.7526 18.4928C38.0724 18.4928 38.5333 18.4771 38.6817 18.3756C38.8535 18.2584 38.8535 18.2349 38.8535 16.5397C38.8535 15.1178 38.8301 14.7975 38.7364 14.7038C38.6348 14.6022 38.1974 14.5866 35.7838 14.5866C33.6905 14.5866 32.9172 14.61 32.8391 14.6803C32.7532 14.7585 32.7297 15.1022 32.7454 16.5162ZM32.6438 25.3676H35.7448C37.7522 25.3676 38.9317 25.3989 39.0723 25.4535C39.1894 25.4926 39.3847 25.6254 39.5097 25.7426C39.6346 25.8598 39.7987 26.0942 39.8768 26.266C40.0018 26.5395 40.0252 26.7895 40.0252 28.3754C40.0252 29.3597 39.9861 30.305 39.9471 30.4613C39.9002 30.6253 39.7752 30.8675 39.6581 31.0081C39.5331 31.1409 39.2988 31.3206 39.1269 31.3909C38.8692 31.5081 38.6036 31.5394 36.354 31.5394V32.6331C36.354 33.2346 36.3775 33.7424 36.4165 33.7659C36.4478 33.7815 36.6118 33.6565 36.7836 33.4846C37.0336 33.2425 37.1508 33.18 37.3695 33.18C37.5179 33.18 37.7053 33.2425 37.7834 33.3206C37.8616 33.3987 37.924 33.5628 37.9162 33.7268C37.9162 33.969 37.8225 34.1018 37.0023 34.9143C36.3775 35.5315 36.0025 35.844 35.8463 35.8752C35.6276 35.9299 35.5495 35.8674 34.62 34.9221C34.0264 34.3284 33.6202 33.8596 33.6202 33.7659C33.6202 33.6799 33.6827 33.5159 33.7764 33.3909C33.8936 33.2346 33.9951 33.18 34.206 33.18C34.4169 33.18 34.5575 33.2503 35.1902 33.844L35.1824 31.5394H33.9561C32.8235 31.5394 32.6985 31.5237 32.4173 31.3597C32.2455 31.2659 32.0033 31.055 31.6284 30.5863L31.605 28.5472C31.5893 26.5551 31.5893 26.4926 31.7612 26.1488C31.8783 25.9223 32.0658 25.727 32.2923 25.5864L32.6438 25.3676ZM32.7454 28.4457C32.7532 29.7191 32.7844 30.1956 32.8547 30.2738C32.9328 30.3441 33.6124 30.3675 35.8307 30.3675C38.6192 30.3675 38.6973 30.3597 38.7754 30.2113C38.8223 30.1175 38.8535 29.3441 38.8535 28.391C38.8535 27.1566 38.8301 26.7113 38.7598 26.6332C38.6817 26.5551 38.0022 26.5395 35.8073 26.5395C33.6983 26.5395 32.9172 26.5629 32.8391 26.6332C32.7532 26.7113 32.7297 27.0551 32.7454 28.4457ZM13.3898 34.7424C14.2802 34.7346 14.3896 34.7502 14.6395 34.9143C14.7879 35.0159 14.991 35.2502 15.0926 35.4455C15.241 35.7424 15.2644 35.9221 15.2644 36.5783C15.2644 37.2346 15.241 37.4142 15.0926 37.7033C14.991 37.8986 14.8114 38.1252 14.6942 38.2111C14.4989 38.3595 14.3583 38.3752 13.3898 38.3752C12.4212 38.3752 12.2884 38.3595 12.0853 38.2111C11.9682 38.1252 11.7885 37.8986 11.687 37.7033C11.5229 37.3908 11.5073 37.2736 11.5308 36.4611C11.5542 35.6486 11.5698 35.5393 11.7495 35.2971C11.851 35.1565 12.0463 34.969 12.1791 34.8909C12.3743 34.7659 12.5696 34.7424 13.3898 34.7424ZM12.6868 37.2424H14.0928V35.9143H12.6868V37.2424ZM16.9125 34.7424H21.8334C24.95 34.7424 26.8012 34.7737 26.9028 34.8205C26.9887 34.8596 27.098 34.9924 27.1371 35.1096C27.1996 35.258 27.1996 35.3908 27.1449 35.5237C27.098 35.633 26.9652 35.7658 26.8481 35.8205C26.6762 35.8986 25.5671 35.9143 16.8891 35.8752L16.7407 35.6799C16.6548 35.5705 16.5845 35.4065 16.5845 35.3205C16.5766 35.2268 16.6548 35.0627 16.7485 34.9455L16.9125 34.7424ZM16.9672 37.2424H23.1457L23.341 37.4377C23.4503 37.547 23.5362 37.7189 23.5362 37.8283C23.5362 37.9377 23.4503 38.1095 23.1535 38.4142H16.975L16.7797 38.2189C16.6704 38.1095 16.5923 37.9377 16.5923 37.8283C16.5923 37.7189 16.6782 37.5392 16.7797 37.4377L16.9672 37.2424ZM38.8067 37.2346L39.1582 37.4221C39.3534 37.5236 39.619 37.7502 39.9783 38.2658L40.0018 40.2345C40.0252 42.2032 40.0252 42.2032 39.8299 42.6094C39.6737 42.9219 39.5409 43.0704 38.8848 43.4532L35.9947 43.4766C34.042 43.4922 32.9953 43.4688 32.7532 43.4141C32.5579 43.3594 32.2845 43.2266 32.1361 43.1172C31.9877 43.0001 31.8002 42.7657 31.7299 42.5938C31.605 42.3204 31.5893 42.0313 31.5815 40.3439C31.5815 38.6017 31.5972 38.383 31.7299 38.1173C31.8159 37.9611 31.9643 37.7502 32.0658 37.6564C32.1674 37.5627 32.3704 37.4299 32.5188 37.3674C32.7454 37.2658 33.2921 37.2424 38.8067 37.2346ZM32.7376 40.3439C32.7532 41.7735 32.7766 42.1016 32.8703 42.2032C32.9719 42.3048 33.4015 42.3204 35.7448 42.3204C38.0646 42.3204 38.5255 42.3048 38.6739 42.2032C38.8457 42.086 38.8457 42.0626 38.8457 40.3673C38.8457 38.9455 38.8301 38.6252 38.7286 38.5314C38.627 38.4298 38.1974 38.4142 35.776 38.4142C33.6827 38.4142 32.9172 38.4377 32.8313 38.508C32.7454 38.5783 32.7297 38.9298 32.7376 40.3439ZM13.4991 39.7658C14.2255 39.7814 14.4052 39.8048 14.6317 39.9533C14.7801 40.047 14.9754 40.2345 15.0613 40.3829C15.1941 40.6017 15.2175 40.7735 15.2175 41.6173C15.2175 42.4532 15.1941 42.6251 15.0613 42.8516C14.9754 42.9922 14.7801 43.1876 14.6317 43.2813C14.3896 43.4297 14.249 43.4532 13.382 43.4532C12.5149 43.4532 12.3743 43.4297 12.1322 43.2813C11.9838 43.1876 11.7885 42.9922 11.7104 42.8516C11.5854 42.6563 11.5464 42.4063 11.5229 41.8126C11.5073 41.3829 11.5308 40.8829 11.5776 40.6954C11.6245 40.5157 11.7729 40.2579 11.8979 40.1329C12.0307 40.0001 12.2494 39.8595 12.39 39.8204C12.5306 39.7814 13.0305 39.7579 13.4991 39.7658ZM12.6946 41.7032L12.718 42.2813H14.0459V40.9532C12.9133 40.9142 12.7493 40.9298 12.718 41.0157C12.6946 41.0704 12.679 41.3829 12.6946 41.7032ZM26.7387 39.7423L26.9731 39.9767C27.1058 40.1017 27.2074 40.2736 27.2152 40.3439C27.2152 40.422 27.1449 40.5782 26.8949 40.9142L16.936 40.9064L16.7563 40.7345C16.6626 40.6407 16.5845 40.4767 16.5845 40.3673C16.5845 40.2579 16.6313 40.1095 16.686 40.047C16.7407 39.9767 16.85 39.8751 16.936 39.8283C17.0453 39.7736 18.5763 39.7423 26.7387 39.7423ZM16.9281 42.3204H23.1847L23.3644 42.4923C23.4659 42.5938 23.544 42.7579 23.544 42.8673C23.544 42.9766 23.4737 43.1485 23.2394 43.4532L20.2478 43.4766C18.5997 43.4844 17.1703 43.4766 17.0765 43.4532C16.975 43.4297 16.8266 43.3438 16.7407 43.2579C16.6548 43.1719 16.5766 43.0079 16.5688 42.8907C16.561 42.7579 16.6235 42.6094 16.7407 42.5001L16.9281 42.3204ZM21.0055 20.0005C21.4819 20.024 21.8412 20.0865 22.1381 20.1958C22.3724 20.2896 22.7395 20.5005 22.9582 20.6646C23.1691 20.8286 23.4815 21.1333 23.6378 21.3443C23.8018 21.563 24.0127 21.9302 24.1064 22.1646C24.247 22.5161 24.2783 22.7505 24.2783 23.4536C24.2861 24.2661 24.2705 24.3364 24.0205 24.8598C23.8721 25.1723 23.5831 25.5942 23.3488 25.8364C23.1066 26.0863 22.7317 26.3676 22.4349 26.516C22.1615 26.6488 21.7006 26.7973 21.4116 26.8441C21.0445 26.9066 20.7243 26.9066 20.3572 26.852C20.0682 26.8051 19.6229 26.6645 19.3652 26.5473C19.0918 26.4145 18.7012 26.1254 18.4357 25.8598C18.1701 25.5942 17.8889 25.2114 17.7561 24.9379C17.6311 24.6801 17.4983 24.2426 17.4593 23.9614C17.4202 23.6567 17.4202 23.2505 17.4593 22.9458C17.4983 22.6645 17.6389 22.2192 17.7639 21.9458C17.8889 21.6802 18.1623 21.2818 18.3654 21.063C18.5684 20.8443 18.8965 20.5708 19.0918 20.4615C19.2792 20.3443 19.6307 20.1958 19.8729 20.1177C20.1931 20.0083 20.4821 19.9849 21.0055 20.0005ZM19.1699 21.9067C19.0293 22.0708 18.834 22.3599 18.7559 22.5552C18.6544 22.7817 18.5997 23.0864 18.5997 23.4145C18.5997 23.7583 18.6544 24.0473 18.7637 24.3129C18.8575 24.5239 19.084 24.852 19.2636 25.0317C19.4433 25.2114 19.7713 25.4379 19.99 25.5317C20.2634 25.6567 20.529 25.7114 20.8883 25.7035C21.2554 25.7035 21.5132 25.6567 21.8178 25.516C22.0834 25.3989 22.3646 25.1879 22.5833 24.9379C22.7707 24.7192 22.9738 24.3911 23.0363 24.1958C23.0988 24.0005 23.1535 23.6333 23.1535 23.3755C23.1535 23.0161 23.0988 22.7974 22.927 22.438C22.802 22.1802 22.5833 21.8677 22.4349 21.7427C22.2943 21.6177 22.0365 21.4458 21.8647 21.3599C21.6616 21.2583 21.3413 21.188 20.9664 21.1646C20.4353 21.1411 20.3337 21.1568 19.9119 21.3677C19.6542 21.5005 19.3183 21.7349 19.1699 21.9067Z" fill="white"/>
</svg>
